<?xml version="1.0" standalone="no"?>
<!DOCTYPE svg PUBLIC "-//W3C//DTD SVG 20010904//EN"
 "http://www.w3.org/TR/2001/REC-SVG-20010904/DTD/svg10.dtd">
<svg version="1.0" xmlns="http://www.w3.org/2000/svg"
 width="249.000000pt" height="249.000000pt" viewBox="0 0 249.000000 249.000000"
 preserveAspectRatio="xMidYMid meet">
<metadata>
Created by potrace 1.11, written by Peter Selinger 2001-2013
</metadata>
<g transform="translate(0.000000,249.000000) scale(0.100000,-0.100000)"
fill="#000000" stroke="none">
<path d="M1080 2360 c-153 -22 -347 -97 -479 -185 -39 -26 -111 -89 -160 -140
-142 -146 -229 -294 -289 -485 -25 -81 -26 -94 -26 -305 0 -210 2 -224 28
-309 57 -189 139 -327 276 -469 138 -145 323 -252 520 -304 128 -34 343 -42
478 -19 383 67 721 346 853 707 44 119 56 170 70 291 22 196 -15 404 -105 593
-152 317 -443 547 -774 611 -95 18 -308 26 -392 14z m320 -70 c111 -18 292
-84 363 -133 l28 -19 -133 -127 c-73 -70 -154 -147 -180 -170 -27 -24 -48 -49
-48 -55 0 -17 56 -69 69 -65 10 4 63 54 253 236 65 62 124 113 131 113 13 0
138 -121 177 -172 32 -42 57 -10 -235 -289 -60 -58 -158 -151 -216 -207 -59
-57 -126 -120 -150 -142 l-44 -39 35 -36 c19 -19 37 -34 41 -33 9 4 80 69 214
198 227 217 427 405 435 408 5 2 22 -23 38 -55 104 -207 130 -479 68 -716 -23
-92 -103 -278 -124 -291 -10 -6 -59 43 -232 229 -108 116 -117 125 -128 125
-4 0 -22 -15 -40 -33 l-32 -33 46 -49 c26 -28 105 -113 178 -189 72 -76 133
-143 135 -148 3 -10 -137 -151 -185 -185 l-31 -22 -59 62 c-33 34 -118 125
-189 202 -72 77 -179 191 -239 255 -60 63 -117 123 -127 134 -17 18 -18 18
-53 -9 -20 -16 -36 -34 -34 -41 2 -7 61 -75 132 -151 151 -160 372 -396 434
-461 23 -25 39 -49 35 -53 -17 -17 -163 -73 -252 -96 -135 -36 -353 -38 -486
-4 -138 36 -315 112 -315 136 0 6 64 72 142 146 79 74 157 148 175 165 40 38
41 51 3 88 l-30 30 -37 -35 c-20 -19 -87 -82 -148 -140 -60 -58 -131 -125
-157 -148 -53 -48 -44 -49 -122 19 -30 27 -126 144 -126 154 0 3 46 50 103
104 163 154 304 289 420 402 59 58 114 108 122 113 23 12 18 30 -17 64 l-33
32 -40 -36 c-22 -19 -87 -81 -145 -137 -217 -209 -462 -441 -469 -444 -14 -5
-80 154 -105 250 -47 182 -44 368 10 556 26 92 101 253 120 259 7 2 87 -77
180 -177 92 -99 171 -180 174 -180 3 0 21 16 40 35 l33 34 -95 103 c-53 57
-134 144 -181 193 l-85 90 19 26 c22 31 140 142 176 166 25 17 26 16 56 -18
16 -18 71 -77 121 -129 50 -52 178 -188 285 -302 l193 -207 26 20 c57 45 57
47 -26 135 -43 44 -106 111 -142 150 -35 38 -105 112 -155 164 -181 191 -235
250 -235 258 0 23 193 95 313 117 88 16 270 18 357 5z"/>
<path d="M1120 2190 c-65 -8 -185 -36 -207 -49 -8 -4 7 -27 44 -66 31 -33 108
-116 172 -184 64 -69 150 -161 191 -205 41 -44 82 -87 90 -96 8 -9 30 -32 47
-51 l33 -35 -116 -109 -117 -109 -18 23 c-11 13 -83 91 -162 175 -78 83 -180
191 -226 241 -47 49 -119 125 -160 168 l-74 78 -30 -30 -30 -29 28 -34 c27
-33 120 -132 262 -279 40 -42 73 -79 73 -82 0 -3 -30 -34 -67 -69 -37 -35 -86
-83 -110 -108 l-43 -45 -82 85 c-46 47 -118 122 -160 168 -43 45 -81 82 -86
82 -13 0 -59 -142 -71 -221 -21 -130 -10 -311 26 -424 21 -66 25 -70 54 -42
13 12 116 111 229 218 113 108 239 228 280 267 41 39 80 72 87 72 11 0 213
-208 213 -221 0 -3 -24 -28 -52 -55 -57 -52 -370 -350 -527 -501 l-96 -92 32
-32 31 -32 109 104 c59 57 148 142 196 189 l89 85 109 -115 108 -115 -72 -69
c-39 -38 -114 -110 -164 -158 -51 -49 -93 -93 -93 -98 0 -13 146 -58 230 -71
108 -16 277 -7 383 22 48 13 86 26 85 30 -2 4 -132 146 -290 314 -159 169
-288 311 -288 315 0 9 214 210 223 210 3 0 146 -150 318 -332 171 -183 317
-334 323 -336 6 -1 24 10 38 25 l27 28 -52 55 c-231 246 -307 331 -307 344 0
8 12 24 28 36 15 12 62 55 104 96 42 41 81 74 86 74 6 0 78 -73 162 -162 83
-90 155 -164 160 -166 9 -3 39 84 65 184 30 120 16 376 -27 497 l-14 38 -29
-27 c-17 -15 -77 -72 -135 -128 -219 -210 -453 -431 -459 -434 -4 -1 -56 48
-116 109 l-108 112 74 71 c41 39 162 155 269 257 107 102 227 216 265 252 l70
66 -30 30 c-16 17 -32 30 -36 29 -5 -2 -281 -263 -365 -345 -7 -7 -17 -13 -22
-13 -11 0 -212 209 -212 220 0 3 74 78 166 165 91 87 161 161 157 165 -10 9
-87 35 -163 54 -71 18 -237 26 -320 16z"/>
</g>
</svg>
