<?xml version="1.0" standalone="no"?>
<!DOCTYPE svg PUBLIC "-//W3C//DTD SVG 20010904//EN"
 "http://www.w3.org/TR/2001/REC-SVG-20010904/DTD/svg10.dtd">
<svg version="1.0" xmlns="http://www.w3.org/2000/svg"
 width="249.000000pt" height="249.000000pt" viewBox="0 0 249.000000 249.000000"
 preserveAspectRatio="xMidYMid meet">
<metadata>
Created by potrace 1.11, written by Peter Selinger 2001-2013
</metadata>
<g transform="translate(0.000000,249.000000) scale(0.100000,-0.100000)"
fill="#000000" stroke="none">
<path d="M1095 2363 c-123 -15 -257 -59 -393 -127 -220 -111 -430 -353 -525
-606 -45 -121 -59 -204 -58 -365 0 -236 28 -363 117 -536 57 -109 119 -192
217 -288 98 -95 179 -152 294 -207 111 -53 201 -79 347 -100 322 -47 667 66
913 299 213 202 334 467 350 762 10 199 -28 380 -117 561 -163 328 -487 559
-845 603 -85 10 -234 12 -300 4z m301 -78 c49 -9 118 -25 154 -36 74 -24 230
-97 230 -109 0 -4 -81 -84 -180 -179 l-180 -173 33 -39 c37 -45 46 -47 73 -16
32 35 345 332 355 335 13 5 135 -115 172 -167 l30 -44 -49 -45 c-57 -52 -387
-366 -521 -496 -51 -49 -93 -93 -93 -96 0 -4 16 -24 35 -44 l35 -37 67 64 c38
35 86 81 108 103 22 21 83 79 135 128 52 50 151 143 218 209 l124 119 17 -28
c10 -16 30 -59 44 -95 110 -274 97 -581 -34 -847 l-51 -104 -106 113 c-59 62
-139 147 -179 188 l-71 76 -37 -38 c-20 -21 -35 -41 -33 -46 2 -4 80 -90 173
-190 94 -100 171 -187 173 -195 4 -17 -181 -196 -203 -196 -4 0 -16 10 -27 23
-11 12 -74 80 -142 152 -67 72 -198 211 -291 310 -93 99 -171 181 -175 183 -3
1 -22 -15 -43 -36 l-37 -37 25 -29 c14 -16 60 -65 102 -110 43 -45 137 -144
208 -221 72 -77 163 -175 204 -217 40 -42 70 -81 67 -86 -9 -16 -142 -68 -236
-94 -74 -20 -108 -23 -260 -23 -137 0 -189 4 -240 18 -93 25 -196 65 -259 101
l-55 30 185 177 184 178 -39 40 c-30 31 -41 37 -51 28 -205 -199 -361 -343
-373 -346 -15 -3 -170 148 -191 187 -10 18 24 53 324 337 l335 317 -32 38
c-18 21 -38 38 -45 37 -7 -1 -83 -70 -170 -153 -320 -307 -477 -454 -483 -454
-22 0 -99 210 -120 326 -18 102 -8 347 18 439 33 114 79 222 120 283 9 13 30
-8 267 -255 48 -51 91 -93 94 -93 3 0 23 15 44 34 l38 34 -83 88 c-46 49 -90
96 -98 105 -120 126 -180 192 -180 197 1 22 183 192 206 192 6 0 74 -66 150
-147 76 -82 202 -215 280 -298 78 -82 154 -165 169 -182 15 -18 32 -33 39 -33
7 0 27 16 46 35 l34 35 -25 27 c-13 15 -60 66 -105 113 -67 70 -197 210 -239
256 -26 29 -144 155 -193 205 l-54 56 34 20 c39 23 153 66 218 82 132 33 282
39 416 16z"/>
<path d="M1061 2185 c-85 -16 -163 -43 -159 -55 2 -5 35 -42 73 -82 39 -40
142 -149 229 -243 88 -93 186 -198 218 -231 32 -34 58 -64 58 -67 0 -10 -210
-207 -221 -207 -3 0 -30 26 -59 58 -96 102 -202 215 -284 302 -45 47 -128 136
-185 198 -58 61 -109 112 -114 112 -6 0 -23 -14 -39 -31 l-30 -31 59 -61 c32
-34 81 -86 108 -116 28 -30 85 -90 127 -135 l77 -81 -112 -106 -112 -106 -100
106 c-55 58 -127 134 -159 168 -33 35 -62 63 -66 63 -10 0 -57 -147 -70 -220
-21 -109 -15 -280 13 -393 14 -54 29 -102 33 -107 5 -5 54 34 110 88 386 370
511 487 522 487 4 0 53 -48 110 -106 87 -91 101 -109 89 -120 -8 -8 -94 -90
-193 -184 -98 -93 -219 -209 -269 -256 -49 -48 -114 -108 -142 -134 -29 -26
-53 -53 -53 -59 0 -7 13 -25 30 -41 l29 -28 48 44 c26 24 86 80 133 126 125
120 204 193 210 193 3 0 53 -48 110 -106 l105 -106 -170 -164 c-136 -131 -167
-166 -155 -174 19 -12 129 -45 198 -59 67 -14 270 -14 348 0 80 14 154 38 154
51 0 6 -37 49 -82 97 -130 135 -257 270 -332 351 -39 41 -92 98 -119 127 l-50
51 25 24 c13 12 64 61 112 107 l87 85 57 -61 c31 -34 82 -87 112 -120 29 -32
118 -125 195 -208 78 -82 166 -177 196 -211 78 -87 81 -89 118 -53 34 32 38
44 19 56 -7 4 -71 71 -143 148 -71 77 -147 158 -167 180 -21 22 -38 43 -38 47
0 6 62 67 105 103 6 6 35 33 64 60 l52 50 19 -23 c11 -13 71 -78 134 -145 63
-67 126 -134 140 -150 14 -15 27 -27 30 -27 5 0 50 138 65 201 18 80 24 230
11 314 -14 98 -48 217 -60 213 -8 -3 -170 -154 -415 -389 -152 -146 -199 -189
-208 -189 -9 0 -199 196 -205 210 -3 7 60 70 303 301 55 52 143 136 195 186
52 50 113 107 135 127 l40 36 -36 36 -36 35 -124 -118 c-68 -65 -134 -128
-147 -141 -13 -12 -46 -44 -74 -70 l-50 -46 -45 49 c-25 28 -72 78 -105 111
l-60 62 123 120 c68 65 144 137 168 159 25 23 41 45 37 51 -10 17 -151 59
-240 71 -100 14 -212 13 -305 -4z"/>
</g>
</svg>
